<svg preserveAspectRatio="none" width="100%" height="100%" overflow="visible" style="display: block;" viewBox="0 0 21.9922 21.9922" fill="none" xmlns="http://www.w3.org/2000/svg">
<g id="Icon" clipPath="url(#clip0_0_11)">
<path id="Vector" d="M9.40899 19.2432C9.56985 19.5217 9.8012 19.7531 10.0798 19.9139C10.3584 20.0748 10.6744 20.1594 10.9961 20.1594C11.3178 20.1594 11.6338 20.0748 11.9124 19.9139C12.191 19.7531 12.4223 19.5217 12.5832 19.2432" stroke="currentColor" stroke-width="1.83268" stroke-linecap="round" stroke-linejoin="round"/>
<path id="Vector_2" d="M2.9891 14.0438C2.8694 14.175 2.7904 14.3382 2.76172 14.5135C2.73304 14.6888 2.75591 14.8686 2.82756 15.0311C2.89921 15.1936 3.01654 15.3318 3.16528 15.4289C3.31402 15.5259 3.48776 15.5777 3.66536 15.5778H18.3268C18.5044 15.5779 18.6782 15.5263 18.827 15.4294C18.9759 15.3326 19.0933 15.1945 19.1652 15.0321C19.237 14.8697 19.2601 14.6899 19.2317 14.5146C19.2032 14.3394 19.1244 14.1761 19.0049 14.0448C17.7862 12.7885 16.4941 11.4533 16.4941 7.33073C16.4941 5.87256 15.9149 4.47411 14.8838 3.44302C13.8527 2.41194 12.4543 1.83268 10.9961 1.83268C9.53792 1.83268 8.13947 2.41194 7.10839 3.44302C6.0773 4.47411 5.49805 5.87256 5.49805 7.33073C5.49805 11.4533 4.20509 12.7885 2.9891 14.0438Z" stroke="currentColor" stroke-width="1.83268" stroke-linecap="round" stroke-linejoin="round"/>
</g>
<defs>
<clipPath id="clip0_0_11">
<rect width="21.9922" height="21.9922" fill="white"/>
</clipPath>
</defs>
</svg>
