<svg width="24" height="24" viewBox="0 0 24 24" fill="none" xmlns="http://www.w3.org/2000/svg">
  <g transform="scale(24/21.9976)">
    <path d="M10.9988 20.9977C16.5211 20.9977 20.9977 16.5211 20.9977 10.9988C20.9977 5.47656 16.5211 0.999891 10.9988 0.999891C5.47656 0.999891 0.999891 5.47656 0.999891 10.9988C0.999891 16.5211 5.47656 20.9977 10.9988 20.9977Z" stroke="currentColor" stroke-width="1.15" stroke-linecap="round" stroke-linejoin="round"/>
  </g>
  <g transform="scale(24/10.4798)">
    <path d="M9.47992 0.999919L7.67592 6.41092C7.57774 6.7055 7.41231 6.97318 7.19274 7.19274C6.97318 7.41231 6.7055 7.57774 6.41092 7.67592L0.999919 9.47992L2.80392 4.06892C2.9021 3.77434 3.06753 3.50666 3.28709 3.28709C3.50666 3.06753 3.77434 2.9021 4.06892 2.80392L9.47992 0.999919Z" stroke="currentColor" stroke-width="0.87" stroke-linecap="round" stroke-linejoin="round"/>
  </g>
</svg>
